<?xml version="1.0" standalone="no"?>
<svg xmlns:xlink="http://www.w3.org/1999/xlink" id="wave" style="transform:rotate(0deg); transition: 0.3s" viewBox="0 0 1440 100" version="1.1" xmlns="http://www.w3.org/2000/svg"><defs><linearGradient id="sw-gradient-0" x1="0" x2="0" y1="1" y2="0"><stop stop-color="rgba(161, 93, 224, 1)" offset="0%"/><stop stop-color="rgba(161, 93, 224, 1)" offset="100%"/></linearGradient></defs><path style="transform:translate(0, 0px); opacity:1" fill="url(#sw-gradient-0)" d="M0,30L24,28.3C48,27,96,23,144,30C192,37,240,53,288,53.3C336,53,384,37,432,40C480,43,528,67,576,78.3C624,90,672,90,720,80C768,70,816,50,864,40C912,30,960,30,1008,36.7C1056,43,1104,57,1152,63.3C1200,70,1248,70,1296,60C1344,50,1392,30,1440,33.3C1488,37,1536,63,1584,76.7C1632,90,1680,90,1728,85C1776,80,1824,70,1872,63.3C1920,57,1968,53,2016,45C2064,37,2112,23,2160,30C2208,37,2256,63,2304,68.3C2352,73,2400,57,2448,53.3C2496,50,2544,60,2592,63.3C2640,67,2688,63,2736,66.7C2784,70,2832,80,2880,78.3C2928,77,2976,63,3024,58.3C3072,53,3120,57,3168,53.3C3216,50,3264,40,3312,38.3C3360,37,3408,43,3432,46.7L3456,50L3456,100L3432,100C3408,100,3360,100,3312,100C3264,100,3216,100,3168,100C3120,100,3072,100,3024,100C2976,100,2928,100,2880,100C2832,100,2784,100,2736,100C2688,100,2640,100,2592,100C2544,100,2496,100,2448,100C2400,100,2352,100,2304,100C2256,100,2208,100,2160,100C2112,100,2064,100,2016,100C1968,100,1920,100,1872,100C1824,100,1776,100,1728,100C1680,100,1632,100,1584,100C1536,100,1488,100,1440,100C1392,100,1344,100,1296,100C1248,100,1200,100,1152,100C1104,100,1056,100,1008,100C960,100,912,100,864,100C816,100,768,100,720,100C672,100,624,100,576,100C528,100,480,100,432,100C384,100,336,100,288,100C240,100,192,100,144,100C96,100,48,100,24,100L0,100Z"/></svg>